<svg data-v-fde0c5aa="" xmlns="http://www.w3.org/2000/svg" viewBox="0 0 100 100" class="iconAbove"><!----><defs data-v-fde0c5aa=""><!----></defs><!----><defs data-v-fde0c5aa=""><!----></defs><g data-v-fde0c5aa="" id="e9bcc982-3240-400f-9a63-cf3edd3b98ee" fill="#371C00"><path d=""></path></g><defs data-v-fde0c5aa=""><!----></defs><g data-v-fde0c5aa="" id="f5e797fa-6858-40fa-a828-3f78bd87f9b3" stroke="none" fill="#f0b45b"><path d="M50 27.649c15.316 0 19.205 8.33 20.338 10.088 1.129 1.757.255 8.367 1.254 8.912.972.534 7.114-6.803 7.653-7.656 2.004-3.155 6.64-11.041 7.271-17.316.627-6.276 2.019-16.2 2.019-16.2s.353 45.706-.626 51.59c-1.886 11.297-5.021 20.273-12.052 25.608C65.442 90.582 50 95.478 50 95.478s-15.44-4.896-25.855-12.802c-7.032-5.335-10.168-14.312-12.053-25.608-.979-5.884-.627-51.59-.627-51.59s1.392 9.923 2.019 16.2c.631 6.275 5.268 14.161 7.271 17.316.542.854 6.684 8.19 7.655 7.656.999-.545.125-7.155 1.254-8.912C30.797 35.979 34.685 27.649 50 27.649zM48.901 40.75s-1.412.752-5.555 0c-4.144-.754-4.896-1.005-6.652 0-1.76 1.003 2.04 9.414 6.102 9.351 4.066-.062 3.941-1.318 7.202-1.318 3.266 0 3.14 1.256 7.202 1.318 4.064.063 7.863-8.347 6.107-9.351-1.761-1.005-2.513-.754-6.658 0-4.139.752-5.555 0-5.555 0l-1.097-.663-1.096.663z"></path></g><!----></svg>